Coordinates
version=1
nRows=29
nColumns=24
inDegrees=yes

Units are S.I. units (second, meters, Newtons, ...)
Angles are in degrees.

endheader
time	pelvis_tilt	pelvis_list	pelvis_rotation	pelvis_tx	pelvis_ty	pelvis_tz	hip_flexion_r	hip_adduction_r	hip_rotation_r	knee_angle_r	ankle_angle_r	subtalar_angle_r	mtp_angle_r	hip_flexion_l	hip_adduction_l	hip_rotation_l	knee_angle_l	ankle_angle_l	subtalar_angle_l	mtp_angle_l	lumbar_extension	lumbar_bending	lumbar_rotation
      0.88266667	     -3.41662977	     -2.15585370	      0.52153565	     -0.17566639	      1.05643438	      0.29796888	     -2.54493507	      7.10786020	      0.96753774	    -14.61047270	      9.62035451	    -11.68308235	      2.44738223	     22.24239285	     -0.13443077	     -6.21504042	      2.30094497	      2.64717854	      0.92431630	      3.48852384	      3.64107797	      5.92600014	      1.43815284
      0.88683333	     -3.42764480	     -2.18864957	      0.46507651	     -0.16981140	      1.05597754	      0.29785317	     -2.59887666	      7.10246835	      0.91926573	    -15.17545565	      9.59184465	    -11.64179024	      2.44853211	     22.15413692	     -0.13895371	     -6.14369422	      2.32038212	      2.64593205	      1.03284840	      3.47937145	      3.68179635	      5.92564762	      1.43650121
      0.89100000	     -3.42000276	     -2.22928806	      0.56674652	     -0.16390606	      1.05550680	      0.29742614	     -2.65849791	      7.09754284	      0.61629439	    -15.76182226	      9.61944689	    -11.03450932	      2.46683952	     22.08925117	     -0.08494274	     -5.99322780	      2.21049926	      2.57137046	      1.63016322	      3.42335591	      3.68614561	      5.99951684	      1.45002603
      0.89516667	     -3.40963571	     -2.23614492	      0.55373795	     -0.15797683	      1.05510473	      0.29719400	     -2.69218083	      7.05040244	      0.44517881	    -16.42091658	      9.70033431	    -10.58348710	      2.49314812	     21.99521805	     -0.04468247	     -5.90845568	      2.06072545	      2.56518688	      1.99809510	      3.36799304	      3.70783211	      5.99738299	      1.44893212
      0.89933333	     -3.37830426	     -2.23835167	      0.49027184	     -0.15206995	      1.05476409	      0.29712443	     -2.72636615	      7.00393473	      0.39577779	    -17.11682929	      9.64270452	    -10.54651179	      2.49713714	     21.86697192	     -0.03259981	     -5.78683711	      1.86994449	      2.52214300	      2.07994307	      3.36360929	      3.77352888	      5.97810786	      1.45315810
      0.90350000	     -3.34879507	     -2.23209749	      0.56907641	     -0.14605392	      1.05440001	      0.29666671	     -2.73807884	      6.92728559	      0.05228727	    -17.84782019	      9.57794797	     -9.88104085	      2.54736832	     21.75516275	      0.06062786	     -5.50025742	      1.61965838	      2.32842957	      2.39831801	      3.32936364	      3.78424360	      6.03006559	      1.46607944
      0.90766667	     -3.31713696	     -2.21294056	      0.57774852	     -0.14010801	      1.05407034	      0.29636852	     -2.71253769	      6.83564236	     -0.19438004	    -18.65676523	      9.52519108	     -9.40325975	      2.60907965	     21.63789078	      0.13231712	     -5.26455875	      1.32268870	      2.17053809	      2.50331874	      3.30549780	      3.77689907	      5.99264745	      1.47339788
      0.91183333	     -3.28407066	     -2.20062083	      0.59430919	     -0.13421440	      1.05374686	      0.29611572	     -2.65549426	      6.75528744	     -0.43963192	    -19.51688865	      9.37805529	     -9.07907615	      2.65511111	     21.53399770	      0.19259648	     -5.04525956	      0.96586990	      1.99186191	      2.55008461	      3.29786629	      3.73897814	      5.92042565	      1.48845417
      0.91600000	     -3.22449645	     -2.14561654	      0.60376645	     -0.12817851	      1.05351561	      0.29574807	     -2.61151874	      6.60757818	     -0.72260158	    -20.41971792	      9.23057087	     -8.52612410	      2.74931929	     21.35789745	      0.30569670	     -4.69783885	      0.64975797	      1.73575838	      2.49195227	      3.29690682	      3.78224588	      5.91982086	      1.49583426
      0.92016667	     -3.14802988	     -2.09915171	      0.53638042	     -0.12227293	      1.05333598	      0.29571799	     -2.54261397	      6.48905993	     -0.86054881	    -21.40021588	      9.11167665	     -8.47480289	      2.76107402	     21.18366237	      0.35621965	     -4.56145233	      0.26454942	      1.65264156	      2.52630453	      3.29861201	      3.81697943	      5.83999683	      1.50645608
      0.92433333	     -3.14311712	     -2.04958869	      0.63358279	     -0.11630874	      1.05302193	      0.29522063	     -2.36519674	      6.33849540	     -1.29791113	    -22.40814002	      8.68255919	     -7.85549619	      2.83664814	     21.11233462	      0.49711413	     -4.25700287	     -0.16386911	      1.25057121	      2.41378784	      3.30686550	      3.70641427	      5.68871864	      1.54456022
      0.92850000	     -3.08791913	     -1.95652514	      0.64611724	     -0.11028958	      1.05285177	      0.29478930	     -2.21249648	      6.12249409	     -1.66559562	    -23.49158675	      8.36211909	     -7.26676046	      2.94426075	     20.93506816	      0.65372743	     -3.90152356	     -0.52555990	      0.88525774	      2.11251409	      3.32541793	      3.69362923	      5.60043847	      1.56237786
      0.93266667	     -3.03268209	     -1.85723813	      0.64389672	     -0.10431229	      1.05270750	      0.29441920	     -2.02354054	      5.89830725	     -1.99940163	    -24.63542285	      8.01775407	     -6.77729020	      3.07109338	     20.75752709	      0.80624938	     -3.56284446	     -0.89805193	      0.52015464	      1.71860232	      3.35124442	      3.66219712	      5.47324170	      1.57940786
      0.93683333	     -2.96260613	     -1.74899004	      0.64296966	     -0.09834799	      1.05261527	      0.29404869	     -1.81719122	      5.65784981	     -2.34162581	    -25.83050071	      7.58933529	     -6.32713141	      3.21256410	     20.56101380	      0.96628725	     -3.22476818	     -1.26986375	      0.13818138	      1.29427522	      3.38240643	      3.63822506	      5.34994379	      1.59528305
      0.94100000	     -2.86777423	     -1.60087159	      0.63397251	     -0.09233526	      1.05260169	      0.29344383	     -1.60436930	      5.33508847	     -2.74634152	    -27.09747256	      7.26690111	     -5.78826727	      3.64167459	     20.28855941	      1.18817178	     -2.63908374	     -1.55529768	     -0.41813660	      0.16051314	      3.48742055	      3.64934398	      5.29971203	      1.58032866
      0.94516667	     -2.81167728	     -1.47998891	      0.61902595	     -0.08642786	      1.05253214	      0.29321079	     -1.31366485	      5.07643467	     -3.05513786	    -28.39877191	      6.69439190	     -5.51655018	      3.75424540	     20.12584361	      1.34045183	     -2.46621797	     -1.98117960	     -0.67715395	      0.08446961	      3.51597956	      3.56357479	      5.06480486	      1.60551369
      0.94933333	     -2.72056708	     -1.30280482	      0.57525839	     -0.08036169	      1.05258915	      0.29280002	     -1.04023723	      4.72022803	     -3.39283108	    -29.73256617	      5.90125679	     -5.06422231	      3.99446604	     19.86594050	      1.56194063	     -2.14102394	     -2.29924656	     -1.12739694	     -0.42228344	      3.57094968	      3.60533258	      4.96417463	      1.61818960
      0.95350000	     -2.66347844	     -1.14206615	      0.55424690	     -0.07443868	      1.05258490	      0.29235692	     -0.68140302	      4.37376466	     -3.75997718	    -31.13904090	      5.15955019	     -4.68455919	      4.28469835	     19.67061784	      1.77131652	     -1.80343356	     -2.66366437	     -1.54946626	     -1.07357699	      3.63491945	      3.56797405	      4.76958336	      1.63902984
      0.95766667	     -2.59170889	     -0.96656760	      0.52621533	     -0.06852244	      1.05262642	      0.29191942	     -0.30698848	      4.00172341	     -4.11737137	    -32.59306647	      4.39477307	     -4.36892972	      4.59563903	     19.46014521	      1.99193056	     -1.50433774	     -3.03444884	     -1.93253408	     -1.68865929	      3.70067358	      3.52863315	      4.58222585	      1.65454219
      0.96183333	     -2.53035567	     -0.79020801	      0.49623309	     -0.06263317	      1.05267357	      0.29150756	      0.11069977	      3.62474054	     -4.45830576	    -34.08676302	      3.56026188	     -4.08944774	      4.89986282	     19.26749928	      2.20839835	     -1.23824703	     -3.41721342	     -2.27415437	     -2.25000332	      3.76118430	      3.49962570	      4.37673894	      1.67077158
      0.96600000	     -2.45512718	     -0.59718528	      0.45973603	     -0.05676534	      1.05276159	      0.29107038	      0.54374747	      3.21504862	     -4.79389168	    -35.61597546	      2.65214148	     -3.83916833	      5.22058381	     19.05972034	      2.44074726	     -0.98703571	     -3.80247233	     -2.60065256	     -2.82337956	      3.82051712	      3.45149734	      4.16093264	      1.68688963
      0.97016667	     -2.38488225	     -0.43009405	      0.43152303	     -0.05111679	      1.05281377	      0.29075386	      1.03131193	      2.84549427	     -5.09173524	    -37.21639987	      1.96040031	     -3.67751204	      5.37069582	     18.89845062	      2.63077721	     -0.80483104	     -4.25362564	     -2.78252032	     -3.06182602	      3.84708015	      3.24891427	      3.85929510	      1.70555633
      0.97433333	     -2.28586226	     -0.18781774	      0.36625894	     -0.04510093	      1.05301250	      0.29022841	      1.47702209	      2.35273883	     -5.39486750	    -38.76644897	      0.69930834	     -3.46773827	      5.67992584	     18.63362446	      2.91700944	     -0.59745833	     -4.59595085	     -3.09980382	     -3.76222294	      3.89363738	      3.34314245	      3.71283958	      1.71693609
      0.97850000	     -2.21817672	     -0.00625540	      0.31407998	     -0.03954590	      1.05308503	      0.28989520	      2.03084116	      1.95244388	     -5.63303731	    -40.42915456	     -0.05329438	     -3.36691228	      5.83632887	     18.46870350	      3.11437881	     -0.37222593	     -5.02761563	     -3.26533866	     -4.02253508	      3.91722453	      3.10786846	      3.39266155	      1.73159612
      0.98266667	     -2.12950528	      0.25260128	      0.25153888	     -0.03356807	      1.05327590	      0.28935956	      2.53624027	      1.43180240	     -5.89813435	    -42.00937349	     -1.42584111	     -3.29570051	      6.17127185	     18.21925494	      3.41806332	     -0.21398072	     -5.37552216	     -3.53433215	     -4.76595265	      3.95962197	      3.20463065	      3.22097528	      1.74166507
      0.98683333	     -2.10642794	      0.48012458	      0.14795401	     -0.02787083	      1.05333458	      0.28887629	      3.17700871	      0.94974162	     -6.07295172	    -43.67317101	     -2.49709186	     -3.41408248	      6.67492820	     18.04952591	      3.67007494	      0.09874481	     -5.71582670	     -3.83041796	     -5.43593435	      4.02252098	      3.19767383	      3.01925611	      1.74434520
      0.99100000	     -2.01925962	      0.70038136	      0.11983507	     -0.02218521	      1.05348563	      0.28845736	      3.74647151	      0.49088496	     -6.29166500	    -45.30151120	     -3.51441148	     -3.34777789	      6.95312989	     17.85336493	      3.92381810	      0.13499437	     -6.14448571	     -3.89257440	     -5.73038399	      4.05811333	      3.09217847	      2.70268002	      1.75669891
      0.99516667	     -1.94260507	      0.93196650	      0.04593418	     -0.01654381	      1.05364057	      0.28807288	      4.35602749	      0.02164645	     -6.42779649	    -46.92992430	     -4.58994993	     -3.44477862	      7.24074885	     17.64657409	      4.17773546	      0.23223378	     -6.52557401	     -3.98622723	     -6.07494384	      4.09091239	      3.00675508	      2.43205674	      1.75961059
      0.99933333	     -1.85967651	      1.13910518	     -0.02244497	     -0.01106828	      1.05377469	      0.28770530	      4.98819881	     -0.41290463	     -6.52590623	    -48.58172413	     -5.28640444	     -3.49533386	      7.36511468	     17.43874226	      4.40043633	      0.39869279	     -6.90037048	     -4.03129480	     -6.17710035	      4.10617992	      2.81403709	      2.18564686	      1.75451967
